<?xml version="1.0" encoding="iso-8859-1"?>
<!-- Generator: Adobe Illustrator 19.0.0, SVG Export Plug-In . SVG Version: 6.00 Build 0)  -->
<svg version="1.1" id="Capa_1" xmlns="http://www.w3.org/2000/svg" xmlns:xlink="http://www.w3.org/1999/xlink" x="0px" y="0px"
	 viewBox="0 0 489.994 489.994" style="enable-background:new 0 0 489.994 489.994;" xml:space="preserve">
<g>
	<g>
		<path d="M483.766,230.425l-59.4-59.4v-84.5c0-11.5-9.4-20.9-20.9-20.9h-84.4l-59.4-59.4c-8.3-8.3-20.9-8.3-29.2,0l-59.4,59.5
			h-84.5c-11.5,0-20.9,9.4-20.9,20.9v84.4l-59.4,59.4c-8.4,8.4-8.1,21.1,0,29.2l59.5,59.4v84.4c0,11.5,9.4,20.9,20.9,20.9h84.4
			l59.4,59.4c7.8,7.8,20.3,8.9,29.2,0l59.4-59.4h84.4c11.5,0,20.9-9.4,20.9-20.9v-84.4l59.4-59.4
			C492.066,251.425,491.866,238.525,483.766,230.425z M389.966,296.125c-4.2,4.2-6.3,9.4-6.3,14.6v73h-73c-5.2,0-10.4,2.1-14.6,6.3
			l-51,51l-51.1-51.1c-4.2-4.2-9.4-6.3-14.6-6.3h-73v-73c0-5.2-2.1-10.4-6.3-14.6l-51-51l51.1-51.1c4.2-4.2,6.3-9.4,6.3-14.6v-73h73
			c5.2,0,10.4-2.1,14.6-6.3l51-51l51.1,51.1c4.2,4.2,9.4,6.3,14.6,6.3h73v73c0,5.2,2.1,10.4,6.3,14.6l51,51L389.966,296.125z"/>
		<path d="M245.066,127.925c-63.7,0-115.6,51.8-115.6,115.6c0,63.7,51.8,115.6,115.6,115.6s115.6-51.8,115.6-115.6
			S308.766,127.925,245.066,127.925z M245.066,318.025c-41.1,0-74.6-33.4-74.6-74.6c0-41.1,33.4-74.6,74.6-74.6s74.6,33.4,74.6,74.6
			C319.666,284.525,286.166,318.025,245.066,318.025z"/>
	</g>
</g>
<g>
</g>
<g>
</g>
<g>
</g>
<g>
</g>
<g>
</g>
<g>
</g>
<g>
</g>
<g>
</g>
<g>
</g>
<g>
</g>
<g>
</g>
<g>
</g>
<g>
</g>
<g>
</g>
<g>
</g>
</svg>
